<svg xmlns="http://www.w3.org/2000/svg" xmlns:xlink="http://www.w3.org/1999/xlink" width="500" zoomAndPan="magnify" viewBox="0 0 375 374.999991" height="500" preserveAspectRatio="xMidYMid meet" version="1.0"><defs><clipPath id="0ec7d38d30"><path d="M 20.117188 28.277344 L 354.617188 28.277344 L 354.617188 347 L 20.117188 347 Z M 20.117188 28.277344 " clip-rule="nonzero"/></clipPath></defs><rect x="-37.5" width="450" fill="#ffffff" y="-37.499999" height="449.999989" fill-opacity="1"/><rect x="-37.5" width="450" fill="#5e17eb" y="-37.499999" height="449.999989" fill-opacity="1"/><g clip-path="url(#0ec7d38d30)"><path fill="#f4f7f8" d="M 132.65625 297.449219 C 141.527344 297.449219 148.714844 304.640625 148.714844 313.511719 C 148.714844 322.382812 141.527344 329.574219 132.65625 329.574219 C 123.785156 329.574219 116.59375 322.382812 116.59375 313.511719 C 116.59375 304.640625 123.785156 297.449219 132.65625 297.449219 Z M 242.339844 77.496094 C 233.472656 77.496094 226.277344 70.304688 226.277344 61.433594 C 226.277344 52.5625 233.472656 45.375 242.339844 45.375 C 251.210938 45.375 258.402344 52.5625 258.402344 61.433594 C 258.402344 70.304688 251.210938 77.496094 242.339844 77.496094 Z M 354.726562 186.347656 C 354.648438 173.953125 321.417969 160.921875 321.417969 149.617188 C 321.417969 140.4375 322.472656 130.898438 323.53125 121.007812 C 324.949219 111.476562 326.007812 101.585938 326.007812 92.402344 C 326.007812 59.558594 304.816406 45.433594 273.382812 45.433594 L 271.398438 45.433594 C 265.75 35.199219 254.855469 28.265625 242.339844 28.265625 C 224.023438 28.265625 209.167969 43.117188 209.167969 61.433594 C 209.167969 79.757812 224.023438 94.609375 242.339844 94.609375 C 257.390625 94.609375 270.09375 84.578125 274.152344 70.84375 C 288.945312 72.753906 294.21875 82.621094 294.21875 98.054688 C 294.21875 105.117188 293.160156 112.886719 291.75 120.65625 C 291.042969 128.429688 289.628906 136.550781 289.628906 146.085938 C 289.277344 170.808594 317.828125 173.78125 317.882812 186.007812 C 317.9375 198.300781 289.277344 201.53125 289.628906 226.253906 C 289.628906 235.789062 291.042969 244.265625 291.75 252.035156 C 293.160156 259.804688 294.21875 267.222656 294.21875 274.289062 C 294.21875 286.46875 290.855469 294.949219 282.972656 299.160156 L 111.851562 45.433594 L 97.109375 45.433594 L 96.945312 45.542969 C 68.101562 46.90625 48.988281 61.210938 48.988281 92.402344 C 48.988281 101.585938 50.050781 111.476562 51.460938 121.007812 C 52.519531 130.898438 53.578125 140.4375 53.578125 149.617188 C 53.578125 160.914062 20.347656 173.953125 20.265625 186.347656 C 20.1875 198.679688 53.578125 212.480469 53.578125 222.722656 C 53.578125 231.902344 52.519531 241.089844 51.460938 250.625 C 50.050781 260.15625 48.988281 270.046875 48.988281 278.878906 C 48.988281 314.546875 70.886719 327.261719 101.613281 327.261719 L 102.46875 327.261719 C 107.695312 338.714844 119.242188 346.683594 132.65625 346.683594 C 150.976562 346.683594 165.828125 331.832031 165.828125 313.511719 C 165.828125 295.191406 150.976562 280.339844 132.65625 280.339844 C 118.410156 280.339844 106.269531 289.320312 101.566406 301.921875 C 86.789062 300.234375 80.773438 290.566406 80.773438 274.289062 C 80.773438 267.222656 81.835938 259.804688 83.25 252.035156 C 83.953125 244.265625 85.367188 235.789062 85.367188 226.253906 C 85.71875 201.53125 57.058594 198.300781 57.113281 186.007812 C 57.167969 173.78125 85.71875 170.808594 85.367188 146.085938 C 85.367188 136.550781 83.953125 128.429688 83.25 120.65625 C 81.835938 112.886719 80.773438 105.117188 80.773438 98.054688 C 80.773438 86.234375 83.875 77.679688 91.972656 73.464844 L 263.144531 327.261719 L 273.382812 327.261719 C 304.105469 327.261719 326.007812 314.546875 326.007812 278.878906 C 326.007812 270.046875 324.949219 260.160156 323.53125 250.625 C 322.472656 241.089844 321.417969 231.902344 321.417969 222.722656 C 321.417969 212.480469 354.808594 198.679688 354.726562 186.347656 " fill-opacity="1" fill-rule="nonzero"/></g></svg>