<svg xmlns="http://www.w3.org/2000/svg" xmlns:xlink="http://www.w3.org/1999/xlink" width="500" zoomAndPan="magnify" viewBox="0 0 375 374.999991" height="500" preserveAspectRatio="xMidYMid meet" version="1.0"><defs><g/><clipPath id="2fb6066f82"><path d="M 52.710938 20.226562 L 321.960938 20.226562 L 321.960938 276.726562 L 52.710938 276.726562 Z M 52.710938 20.226562 " clip-rule="nonzero"/></clipPath></defs><g clip-path="url(#2fb6066f82)"><path fill="#f4f7f8" d="M 143.332031 236.984375 C 150.476562 236.984375 156.265625 242.777344 156.265625 249.921875 C 156.265625 257.066406 150.476562 262.855469 143.332031 262.855469 C 136.1875 262.855469 130.398438 257.066406 130.398438 249.921875 C 130.398438 242.777344 136.1875 236.984375 143.332031 236.984375 Z M 231.65625 59.859375 C 224.519531 59.859375 218.722656 54.070312 218.722656 46.925781 C 218.722656 39.785156 224.519531 33.992188 231.65625 33.992188 C 238.800781 33.992188 244.59375 39.785156 244.59375 46.925781 C 244.59375 54.070312 238.800781 59.859375 231.65625 59.859375 Z M 322.164062 147.515625 C 322.097656 137.535156 295.339844 127.042969 295.339844 117.9375 C 295.339844 110.546875 296.1875 102.867188 297.042969 94.898438 C 298.183594 87.222656 299.035156 79.261719 299.035156 71.863281 C 299.035156 45.417969 281.96875 34.042969 256.660156 34.042969 L 255.058594 34.042969 C 250.507812 25.800781 241.738281 20.21875 231.65625 20.21875 C 216.90625 20.21875 204.949219 32.175781 204.949219 46.925781 C 204.949219 61.679688 216.90625 73.640625 231.65625 73.640625 C 243.78125 73.640625 254.007812 65.5625 257.277344 54.503906 C 269.191406 56.042969 273.4375 63.988281 273.4375 76.414062 C 273.4375 82.105469 272.582031 88.359375 271.445312 94.617188 C 270.878906 100.875 269.738281 107.414062 269.738281 115.09375 C 269.457031 135.003906 292.445312 137.398438 292.492188 147.242188 C 292.539062 157.144531 269.457031 159.746094 269.738281 179.652344 C 269.738281 187.332031 270.878906 194.160156 271.445312 200.414062 C 272.582031 206.671875 273.4375 212.644531 273.4375 218.335938 C 273.4375 228.144531 270.730469 234.972656 264.378906 238.363281 L 126.578125 34.042969 L 114.707031 34.042969 L 114.574219 34.128906 C 91.347656 35.226562 75.957031 46.746094 75.957031 71.863281 C 75.957031 79.261719 76.808594 87.222656 77.949219 94.898438 C 78.800781 102.867188 79.652344 110.546875 79.652344 117.9375 C 79.652344 127.039062 52.894531 137.535156 52.828125 147.515625 C 52.761719 157.449219 79.652344 168.5625 79.652344 176.8125 C 79.652344 184.203125 78.800781 191.597656 77.949219 199.277344 C 76.808594 206.953125 75.957031 214.921875 75.957031 222.03125 C 75.957031 250.753906 93.589844 260.992188 118.332031 260.992188 L 119.023438 260.992188 C 123.230469 270.21875 132.527344 276.632812 143.332031 276.632812 C 158.085938 276.632812 170.042969 264.671875 170.042969 249.921875 C 170.042969 235.167969 158.085938 223.207031 143.332031 223.207031 C 131.859375 223.207031 122.082031 230.4375 118.296875 240.585938 C 106.394531 239.230469 101.554688 231.445312 101.554688 218.335938 C 101.554688 212.644531 102.40625 206.671875 103.542969 200.414062 C 104.113281 194.160156 105.25 187.332031 105.25 179.652344 C 105.535156 159.746094 82.453125 157.144531 82.5 147.242188 C 82.542969 137.398438 105.535156 135.003906 105.25 115.09375 C 105.25 107.414062 104.113281 100.875 103.542969 94.617188 C 102.40625 88.359375 101.554688 82.105469 101.554688 76.414062 C 101.554688 66.898438 104.046875 60.007812 110.570312 56.613281 L 248.414062 260.992188 L 256.660156 260.992188 C 281.398438 260.992188 299.035156 250.753906 299.035156 222.03125 C 299.035156 214.921875 298.183594 206.957031 297.042969 199.277344 C 296.1875 191.597656 295.339844 184.203125 295.339844 176.8125 C 295.339844 168.5625 322.230469 157.449219 322.164062 147.515625 " fill-opacity="1" fill-rule="nonzero"/></g><g fill="#ffffff" fill-opacity="1"><g transform="translate(11.409781, 351.288161)"><g><path d="M 30.578125 -27.84375 L 10.515625 -20.34375 L 30.578125 -12.84375 L 30.578125 -6.796875 L 3.78125 -17.203125 L 3.78125 -23.484375 L 30.578125 -33.890625 Z M 30.578125 -27.84375 "/></g></g></g><g fill="#ffffff" fill-opacity="1"><g transform="translate(47.858547, 351.288161)"><g><path d="M 34.296875 -21.15625 C 36.546875 -20.425781 38.328125 -19.195312 39.640625 -17.46875 C 40.960938 -15.75 41.625 -13.609375 41.625 -11.046875 C 41.625 -7.515625 40.265625 -4.789062 37.546875 -2.875 C 34.835938 -0.957031 30.890625 0 25.703125 0 L 5.46875 0 L 5.46875 -40.703125 L 24.53125 -40.703125 C 29.34375 -40.703125 33.046875 -39.757812 35.640625 -37.875 C 38.234375 -36 39.53125 -33.410156 39.53125 -30.109375 C 39.53125 -28.097656 39.066406 -26.316406 38.140625 -24.765625 C 37.210938 -23.210938 35.929688 -22.007812 34.296875 -21.15625 Z M 13.03125 -34.765625 L 13.03125 -23.546875 L 23.71875 -23.546875 C 26.351562 -23.546875 28.378906 -24.019531 29.796875 -24.96875 C 31.210938 -25.914062 31.921875 -27.300781 31.921875 -29.125 C 31.921875 -30.988281 31.210938 -32.394531 29.796875 -33.34375 C 28.378906 -34.289062 26.351562 -34.765625 23.71875 -34.765625 Z M 25.234375 -5.9375 C 31.085938 -5.9375 34.015625 -7.890625 34.015625 -11.796875 C 34.015625 -15.710938 31.085938 -17.671875 25.234375 -17.671875 L 13.03125 -17.671875 L 13.03125 -5.9375 Z M 25.234375 -5.9375 "/></g></g></g><g fill="#ffffff" fill-opacity="1"><g transform="translate(94.247726, 351.288161)"><g><path d="M 3.203125 -19.1875 L 19.1875 -19.1875 L 19.1875 -13.140625 L 3.203125 -13.140625 Z M 3.203125 -19.1875 "/></g></g></g><g fill="#ffffff" fill-opacity="1"><g transform="translate(118.779622, 351.288161)"><g><path d="M 24.296875 0.578125 C 20.191406 0.578125 16.484375 -0.320312 13.171875 -2.125 C 9.859375 -3.925781 7.257812 -6.414062 5.375 -9.59375 C 3.5 -12.769531 2.5625 -16.351562 2.5625 -20.34375 C 2.5625 -24.34375 3.507812 -27.929688 5.40625 -31.109375 C 7.300781 -34.285156 9.90625 -36.773438 13.21875 -38.578125 C 16.539062 -40.378906 20.253906 -41.28125 24.359375 -41.28125 C 27.691406 -41.28125 30.734375 -40.695312 33.484375 -39.53125 C 36.234375 -38.375 38.5625 -36.691406 40.46875 -34.484375 L 35.578125 -29.890625 C 32.628906 -33.066406 29.003906 -34.65625 24.703125 -34.65625 C 21.921875 -34.65625 19.421875 -34.039062 17.203125 -32.8125 C 14.992188 -31.59375 13.269531 -29.898438 12.03125 -27.734375 C 10.789062 -25.566406 10.171875 -23.101562 10.171875 -20.34375 C 10.171875 -17.59375 10.789062 -15.128906 12.03125 -12.953125 C 13.269531 -10.785156 14.992188 -9.09375 17.203125 -7.875 C 19.421875 -6.65625 21.921875 -6.046875 24.703125 -6.046875 C 29.003906 -6.046875 32.628906 -7.65625 35.578125 -10.875 L 40.46875 -6.21875 C 38.5625 -4.007812 36.222656 -2.320312 33.453125 -1.15625 C 30.679688 0 27.628906 0.578125 24.296875 0.578125 Z M 24.296875 0.578125 "/></g></g></g><g fill="#ffffff" fill-opacity="1"><g transform="translate(163.192354, 351.288161)"><g><path d="M 24.484375 0.578125 C 20.328125 0.578125 16.582031 -0.320312 13.25 -2.125 C 9.914062 -3.925781 7.300781 -6.425781 5.40625 -9.625 C 3.507812 -12.820312 2.5625 -16.394531 2.5625 -20.34375 C 2.5625 -24.300781 3.507812 -27.878906 5.40625 -31.078125 C 7.300781 -34.273438 9.914062 -36.773438 13.25 -38.578125 C 16.582031 -40.378906 20.328125 -41.28125 24.484375 -41.28125 C 28.628906 -41.28125 32.367188 -40.378906 35.703125 -38.578125 C 39.035156 -36.773438 41.648438 -34.285156 43.546875 -31.109375 C 45.441406 -27.929688 46.390625 -24.34375 46.390625 -20.34375 C 46.390625 -16.351562 45.441406 -12.769531 43.546875 -9.59375 C 41.648438 -6.414062 39.035156 -3.925781 35.703125 -2.125 C 32.367188 -0.320312 28.628906 0.578125 24.484375 0.578125 Z M 24.484375 -6.046875 C 27.191406 -6.046875 29.628906 -6.65625 31.796875 -7.875 C 33.972656 -9.09375 35.679688 -10.796875 36.921875 -12.984375 C 38.160156 -15.179688 38.78125 -17.632812 38.78125 -20.34375 C 38.78125 -23.0625 38.160156 -25.515625 36.921875 -27.703125 C 35.679688 -29.890625 33.972656 -31.59375 31.796875 -32.8125 C 29.628906 -34.039062 27.191406 -34.65625 24.484375 -34.65625 C 21.765625 -34.65625 19.316406 -34.039062 17.140625 -32.8125 C 14.972656 -31.59375 13.269531 -29.890625 12.03125 -27.703125 C 10.789062 -25.515625 10.171875 -23.0625 10.171875 -20.34375 C 10.171875 -17.632812 10.789062 -15.179688 12.03125 -12.984375 C 13.269531 -10.796875 14.972656 -9.09375 17.140625 -7.875 C 19.316406 -6.65625 21.765625 -6.046875 24.484375 -6.046875 Z M 24.484375 -6.046875 "/></g></g></g><g fill="#ffffff" fill-opacity="1"><g transform="translate(214.290159, 351.288161)"><g><path d="M 5.46875 -40.703125 L 23.25 -40.703125 C 27.59375 -40.703125 31.453125 -39.859375 34.828125 -38.171875 C 38.203125 -36.484375 40.816406 -34.097656 42.671875 -31.015625 C 44.535156 -27.929688 45.46875 -24.375 45.46875 -20.34375 C 45.46875 -16.3125 44.535156 -12.753906 42.671875 -9.671875 C 40.816406 -6.597656 38.203125 -4.21875 34.828125 -2.53125 C 31.453125 -0.84375 27.59375 0 23.25 0 L 5.46875 0 Z M 22.90625 -6.390625 C 25.894531 -6.390625 28.519531 -6.960938 30.78125 -8.109375 C 33.050781 -9.253906 34.796875 -10.878906 36.015625 -12.984375 C 37.234375 -15.097656 37.84375 -17.550781 37.84375 -20.34375 C 37.84375 -23.132812 37.234375 -25.585938 36.015625 -27.703125 C 34.796875 -29.816406 33.050781 -31.441406 30.78125 -32.578125 C 28.519531 -33.722656 25.894531 -34.296875 22.90625 -34.296875 L 13.03125 -34.296875 L 13.03125 -6.390625 Z M 22.90625 -6.390625 "/></g></g></g><g fill="#ffffff" fill-opacity="1"><g transform="translate(264.457866, 351.288161)"><g><path d="M 35.984375 -6.34375 L 35.984375 0 L 5.46875 0 L 5.46875 -40.703125 L 35.171875 -40.703125 L 35.171875 -34.359375 L 13.03125 -34.359375 L 13.03125 -23.78125 L 32.671875 -23.78125 L 32.671875 -17.5625 L 13.03125 -17.5625 L 13.03125 -6.34375 Z M 35.984375 -6.34375 "/></g></g></g><g fill="#ffffff" fill-opacity="1"><g transform="translate(305.557113, 351.288161)"><g><path d="M 17.4375 -48.953125 L 23.953125 -48.953125 L 4.765625 5.8125 L -1.75 5.8125 Z M 17.4375 -48.953125 "/></g></g></g><g fill="#ffffff" fill-opacity="1"><g transform="translate(329.275169, 351.288161)"><g><path d="M 30.578125 -23.484375 L 30.578125 -17.203125 L 3.78125 -6.796875 L 3.78125 -12.84375 L 23.84375 -20.34375 L 3.78125 -27.84375 L 3.78125 -33.890625 Z M 30.578125 -23.484375 "/></g></g></g></svg>